<svg width="24" height="24" viewBox="0 0 24 24" fill="none" xmlns="http://www.w3.org/2000/svg">
<g clip-path="url(#clip0_1161_104371)">
<path d="M12 22C10.6167 22 9.31667 21.7375 8.1 21.2125C6.88333 20.6875 5.825 19.975 4.925 19.075C4.025 18.175 3.3125 17.1167 2.7875 15.9C2.2625 14.6833 2 13.3833 2 12C2 10.6 2.2625 9.29583 2.7875 8.0875C3.3125 6.87917 4.025 5.825 4.925 4.925L6.325 6.325C5.59167 7.05833 5.02083 7.90833 4.6125 8.875C4.20417 9.84167 4 10.8833 4 12C4 14.2333 4.775 16.125 6.325 17.675C7.875 19.225 9.76667 20 12 20C14.2333 20 16.125 19.225 17.675 17.675C19.225 16.125 20 14.2333 20 12C20 10.8833 19.7958 9.84167 19.3875 8.875C18.9792 7.90833 18.4083 7.05833 17.675 6.325L19.075 4.925C19.975 5.825 20.6875 6.87917 21.2125 8.0875C21.7375 9.29583 22 10.6 22 12C22 13.3833 21.7375 14.6833 21.2125 15.9C20.6875 17.1167 19.975 18.175 19.075 19.075C18.175 19.975 17.1167 20.6875 15.9 21.2125C14.6833 21.7375 13.3833 22 12 22ZM11 13V2H13V13H11Z" fill="#7E828B"/>
</g>
<defs>
<clipPath id="clip0_1161_104371">
<rect width="24" height="24" fill="white"/>
</clipPath>
</defs>
</svg>
